<?xml version="1.0" encoding="UTF-8"?>
<svg id="Layer_1" xmlns="http://www.w3.org/2000/svg" version="1.1" viewBox="0 0 1000 1000">
  <path fill="currentColor" d="M494.78,264.11c37.5,0,74.5.07,111.5-.02,37.09-.09,70.73,10.37,99.67,33.74,26.46,21.38,43.13,49.12,49.5,82.67,1.51,7.97,2.23,16.2,2.28,24.31.22,40.5.02,81,.12,121.5.07,27.64-8.59,52.41-24.55,74.67-18.37,25.62-42.41,44.26-72.25,54.41-11.17,3.8-23.37,6.34-35.12,6.41-83,.53-166,.19-248.99.49-4.55.02-9.78,2.41-13.52,5.24-19.25,14.56-38.02,29.76-57.17,44.44-9.49,7.28-18.98,14.76-29.32,20.67-12.48,7.12-27.22,2.05-32.55-10.26-1.52-3.51-1.79-7.77-1.8-11.68-.13-82.83-.14-165.67-.15-248.5,0-21-.75-42.04.28-62.99,1.56-31.74,12.73-60.14,33.95-84.04,27.54-31.01,62.29-48.31,103.68-50.11,33.1-1.44,66.3-.73,99.45-.96,4.83-.03,9.67,0,15,0M352.71,304.39c-13.94,4.67-26.25,12.14-37.32,21.72-26.25,22.71-40.53,51.38-40.65,86.14-.34,91.47-.13,182.94-.13,274.42,0,2.08.2,4.16.33,6.83,1.35-.68,2.12-.92,2.72-1.39,19.55-15.27,39.55-30.01,58.45-46.04,13.84-11.73,29.06-16.19,46.84-16.12,76.48.32,152.95.09,229.43.18,19.8.02,38.2-5.15,55.48-14.39,19.35-10.34,35.07-24.62,45.6-44.14,9.67-17.93,12.66-37.31,12.45-57.43-.39-36.14.14-72.3-1.09-108.4-.99-29-13.51-53.61-33.96-74.04-21.28-21.26-46.89-33.51-77.17-33.66-72.98-.37-145.96-.09-218.93-.16-14.11-.01-27.89,1.73-42.05,6.48Z"/>
  <path fill="currentColor" d="M414.4,510.87c-26.38,7.29-51.23-4.86-63.66-25.35-11.44-18.86-9.58-43.94,4.26-61.18,20.2-25.16,59.16-30.04,83.83-7.12,20.24,18.81,23.47,49.52,6.1,72.42-7.78,10.25-17.78,17.38-30.53,21.23Z"/>
  <path file="currentColor" d="M486.52,475.74c-7.86-5.25-10.79-12.04-8.63-19.28,1.76-5.9,9.03-11.68,17.41-11.59,34.16.37,68.32.14,102.48.13,2.1,0,4.2,0,6.3,0,.22-.44.45-.87.67-1.31-3.02-3.15-6.02-6.31-9.05-9.45-6.84-7.09-7.2-16.97-.83-23.26,7.08-6.98,18.41-7.35,25.27-.61,13.18,12.95,26.3,25.97,39.37,39.04,7.07,7.08,7.32,17.55.25,24.61-14.14,14.12-28.47,28.04-42.84,41.92-5.33,5.15-15.89,4.65-21.51-.67-5.98-5.66-6.95-15.16-1.71-21.18,3.92-4.51,8.41-8.53,12.63-12.78.99-1,1.92-2.07,3.63-3.93-2.84-.16-4.58-.34-6.32-.34-36.49,0-72.99.04-109.48-.02-2.43,0-4.86-.74-7.64-1.3Z"/>
</svg>